<svg width="244" height="62" viewBox="0 0 244 62" fill="none" xmlns="http://www.w3.org/2000/svg">
<path d="M243.818 20.3893C242.738 11.6293 235.328 3.45927 226.498 3.45927C221.288 3.45927 216.338 6.17927 212.778 9.97927C211.514 11.268 210.348 12.6484 209.288 14.1093C208.542 12.4692 207.673 10.888 206.688 9.37927C203.948 4.94927 199.628 1.29927 194.518 0.279271C185.868 -1.45073 176.998 5.08927 174.208 13.4693C171.418 21.8493 173.738 31.2393 178.328 38.7793C182.918 46.3193 190.808 56.1693 205.328 61.0593C215.328 59.7693 228.788 50.8793 234.768 44.3893C240.748 37.8993 244.868 29.1393 243.818 20.3893Z" fill="#7091DD"/>
<path d="M240.598 36.1093C240.502 36.1202 240.404 36.1202 240.308 36.1093L239.458 36.0493L236.188 35.7793L224.188 34.6793L224.408 34.5493C222.958 38.3193 221.268 42.7393 219.408 47.5493L219.108 48.3293L218.908 47.5093C217.378 41.1893 215.678 34.0993 213.908 26.6293C213.358 24.3193 212.808 22.0393 212.278 19.8193L212.788 19.9193L203.628 32.5193L203.538 32.6393H203.388L182.308 30.4393L176.308 29.7793L174.728 29.5793C174.544 29.5695 174.363 29.5358 174.188 29.4793C174.371 29.4616 174.555 29.4616 174.738 29.4793L176.318 29.5893L182.318 30.1093L203.418 32.1093L203.188 32.2093L212.308 19.5893L212.668 19.0793L212.808 19.6893C213.348 21.9093 213.888 24.1793 214.448 26.4993L219.448 47.3893H218.948C220.838 42.5593 222.568 38.1493 224.048 34.3893L224.098 34.2393H224.258L236.258 35.5193L239.508 35.8993L240.358 36.0093C240.442 36.0321 240.523 36.0657 240.598 36.1093Z" fill="#FAFAFA"/>
<path d="M28.28 15.9919H21.68V45.5819H28.28V15.9919Z" fill="#7091DD"/>
<path d="M10.18 27.482V34.082H39.77V27.482H10.18Z" fill="#7091DD"/>
<path d="M49.55 30.8618C49.5253 30.7296 49.5086 30.596 49.5 30.4618C49.5 30.1718 49.45 29.7818 49.42 29.2918C49.42 29.0318 49.42 28.7418 49.36 28.4318C49.3 28.1218 49.26 27.7718 49.2 27.4318C49.0891 26.5735 48.9153 25.7246 48.68 24.8918C48.1008 22.5927 47.177 20.3944 45.94 18.3718C43.0252 13.4851 38.4962 9.76904 33.1343 7.8649C27.7724 5.96076 21.914 5.98794 16.57 7.94177C15.4753 8.33342 14.4094 8.80123 13.38 9.34177C12.3366 9.91504 11.3342 10.5599 10.38 11.2718C9.40639 11.9938 8.48109 12.7788 7.61002 13.6218C6.75253 14.512 5.95414 15.4574 5.22 16.4518C3.70637 18.4917 2.52822 20.7603 1.73001 23.1718C0.0501324 28.1711 0.0501324 33.5824 1.73001 38.5818C2.52599 40.9942 3.70433 43.2631 5.22 45.3018C5.94906 46.3002 6.74773 47.2459 7.61002 48.1318C8.47841 48.9807 9.4039 49.7692 10.38 50.4918C11.3342 51.2036 12.3366 51.8485 13.38 52.4218C14.4113 52.9582 15.477 53.4259 16.57 53.8218C21.9143 55.7607 27.7664 55.7814 33.1243 53.8805C38.4822 51.9796 43.0127 48.2753 45.94 43.4018C47.179 41.3766 48.1029 39.1747 48.68 36.8718C48.9162 36.0426 49.09 35.1969 49.2 34.3418C49.26 33.9618 49.33 33.6218 49.36 33.3418C49.39 33.0618 49.36 32.7418 49.42 32.4818C49.42 31.9818 49.48 31.6018 49.5 31.3118C49.5077 31.1775 49.5244 31.0438 49.55 30.9118C49.5612 31.0449 49.5612 31.1787 49.55 31.3118C49.55 31.6018 49.55 31.9918 49.55 32.4818V33.3518C49.55 33.6718 49.46 34.0118 49.42 34.3518C49.3205 35.2153 49.1601 36.0708 48.94 36.9118C48.3864 39.2459 47.4793 41.4818 46.25 43.5418C44.4467 46.5856 42.0142 49.2094 39.1152 51.2374C36.2162 53.2655 32.9176 54.6512 29.44 55.3018C25.0901 56.1082 20.6041 55.7458 16.44 54.2518C15.3271 53.8492 14.2415 53.3749 13.19 52.8318C11.0409 51.6478 9.05994 50.1814 7.29999 48.4718C6.42066 47.5697 5.60537 46.6073 4.86002 45.5918C3.30424 43.5112 2.09839 41.1907 1.29001 38.7218C0.46592 36.1784 0.0309991 33.5251 0 30.8518C0.0366817 28.1822 0.471477 25.533 1.29001 22.9918C2.10266 20.5277 3.30821 18.2112 4.86002 16.1318C5.60783 15.115 6.42296 14.1495 7.29999 13.2418C8.19119 12.3853 9.13648 11.587 10.13 10.8518C12.8728 8.82862 16.0025 7.39131 19.3244 6.62921C22.6464 5.8671 26.0896 5.7965 29.44 6.42177C32.9006 7.08669 36.1802 8.48 39.0611 10.5093C41.9421 12.5385 44.3585 15.1573 46.15 18.1918C47.3773 20.2492 48.2844 22.4814 48.84 24.8118C49.0593 25.6563 49.2197 26.515 49.32 27.3818C49.32 27.7518 49.43 28.1018 49.45 28.3818V29.2418C49.45 29.7418 49.45 30.1318 49.45 30.4218C49.4967 30.5651 49.5301 30.7124 49.55 30.8618Z" fill="#7091DD"/>
</svg>
